<svg width="518" height="87" viewBox="0 0 518 87" fill="none" xmlns="http://www.w3.org/2000/svg">
<path d="M21.0197 38.4956H39.6185V65.3347C39.6185 78.8851 32.8553 86.6304 19.8054 86.6304C6.75552 86.6304 0 78.8851 0 65.3347V21.2958C0 7.74531 6.7632 0 19.8054 0C32.8477 0 39.6185 7.74531 39.6185 21.2958V29.5184H27.0528V20.4488C27.0528 14.3973 24.3937 12.103 20.1359 12.103C15.8782 12.103 13.219 14.4127 13.219 20.4488V66.2124C13.219 72.2639 15.8705 74.4427 20.1359 74.4427C24.4013 74.4427 27.0528 72.2639 27.0528 66.2124V50.5755H21.0197V38.4956Z" fill="black"/>
<path d="M58.8168 57.5894L42.0317 0.970093H55.9194L66.0642 39.5658L76.209 0.970093H88.89L72.1049 57.5894V85.6604H58.8168V57.5894Z" fill="black"/>
<path d="M122.345 61.1002L131.406 0.970093H149.882V85.6604H137.324V24.922L128.147 85.6604H115.582L105.683 25.7689V85.6604H94.0854V0.970093H112.569L122.345 61.1002Z" fill="black"/>
<path d="M177.419 0C190.346 0 196.986 7.74531 196.986 21.2958V23.9519H184.451V20.4488C184.451 14.3973 182.038 12.0953 177.811 12.0953C173.584 12.0953 171.171 14.405 171.171 20.4488C171.171 37.8719 197.14 41.1364 197.14 65.3347C197.14 78.8851 190.377 86.6304 177.327 86.6304C164.277 86.6304 157.521 78.8851 157.521 65.3347V60.1301H170.079V66.2124C170.079 72.2639 172.738 74.4427 176.996 74.4427C181.254 74.4427 183.913 72.2639 183.913 66.2124C183.913 48.7893 157.944 45.5249 157.944 21.3265C157.852 7.74531 164.469 0 177.419 0Z" fill="black"/>
<path d="M217.998 85.6604H204.71V0.970093H217.998V37.2637H233.1V0.970093H246.626V85.6604H233.1V49.3667H217.998V85.6604Z" fill="black"/>
<path fill-rule="evenodd" clip-rule="evenodd" d="M285.899 85.6604H299.28L285.753 0.970093H266.309L252.782 85.6604H264.964L267.27 70.2621H283.593L285.899 85.6604ZM281.787 58.7981H268.991L275.385 15.968L281.787 58.7981Z" fill="black"/>
<path fill-rule="evenodd" clip-rule="evenodd" d="M333.188 85.5703L333.218 85.6604L346.745 85.6758C345.415 82.5345 345.292 79.5088 345.292 75.3974V62.3089C345.292 53.4781 343.117 47.0647 336.477 44.2853C342.395 41.4982 345.177 35.8163 345.177 27.1009V20.4489C345.177 7.37576 339.259 0.970093 325.487 0.970093H305.436V85.6527H318.701V51.1683H323.312C329.353 51.1683 332.012 54.0863 332.012 61.9471V75.2589C332.012 82.0617 332.475 83.4438 333.188 85.5703ZM318.724 39.0807V13.0885L325.126 13.0654C329.837 13.0654 331.889 15.7293 331.889 21.7808V30.1266C331.889 36.9019 328.869 39.0807 323.919 39.0807H318.724Z" fill="black"/>
<path d="M371.385 51.9074L367.273 59.6451V85.6604H353.992V0.970093H367.273V37.872L384.665 0.970093H397.953L379.477 38.7189L397.953 85.6604H384.304L371.385 51.9074Z" fill="black"/>
<path d="M517.854 0.939331H407.16L487.112 14.4821L454.572 64.4031H451.805L447.271 68.8994L442.498 64.4031H441.23L436.634 68.9764L432.061 64.4031H430.516L425.944 68.9841L421.225 64.4031H407.16L425.736 71.6403L430.732 69.2613L433.537 74.7046L434.943 75.2435L440.677 72.4102L443.682 78.7389L444.865 79.1392L440.661 85.6912L517.854 0.939331Z" fill="black"/>
<path d="M420.31 20.1716L452.858 27.9015L438.863 29.4414L420.31 20.1716Z" fill="black"/>
</svg>
